<svg xmlns="http://www.w3.org/2000/svg" viewBox="0 0 473.67 151.41"><defs><style>.a{fill:#b7cd96;}.b{fill:#51534a;}</style></defs><title>DEAC-Logo</title><polygon class="a" points="75.61 75.13 63.02 62.17 75.23 0 75.61 75.13"/><polygon class="a" points="75.8 76.28 88.39 89.25 76.18 151.41 75.8 76.28"/><polygon class="a" points="75.13 75.8 62.17 88.39 0 76.18 75.13 75.8"/><polygon class="a" points="76.28 75.61 89.25 63.02 151.41 75.23 76.28 75.61"/><path class="b" d="M172,36.64H134V45h9.32v-.13H172c15.66,0,31.64,6.67,31.64,29.2,0,30.26-25.5,31.22-33.12,31.22h-21v.11H134v8.14h35c20.31,0,44.12-7.83,44.12-39.15C213.15,49.23,195.9,36.64,172,36.64Z"/><path class="b" d="M226.65,36.64h68.56v8.25H236V69.44h49.52v8.25H236v27.62h60.52v8.25H226.65Z"/><path class="b" d="M473.67,93.14c-8.26,16-22.54,22.32-41.27,22.32-29.84,0-43.91-17.88-43.91-40.2,0-26.45,17.88-40.53,43.81-40.53,16.5,0,33.33,6.35,40.2,22l-8,3.7c-5.39-12.59-17.35-17.88-32.06-17.88-22,0-34.39,12-34.39,33.86,0,17.67,12,30.79,35.24,30.79,15.24,0,25.82-6.35,32.16-18.09Z"/><path class="b" d="M338.26,37.26h11.32l39.08,76.17H378.28l-9.84-19.8H319.3l-10,19.8H299.08Zm26.09,48.2-20.43-41-20.43,41Z"/><polygon class="b" points="60.45 61.04 61.31 61.02 30.99 30.51 50.14 61.04 60.45 61.04"/><polygon class="b" points="90.41 50.12 90.41 61.29 120.9 30.99 90.41 50.12"/><polygon class="b" points="91.36 90.37 90.1 90.39 120.42 120.9 101.27 90.37 91.36 90.37"/><polygon class="b" points="60.94 90.19 30.51 120.42 60.94 101.33 60.94 90.19"/><path class="a" d="M133.91,131.09h3.54c2.45,0,3.76,1.34,3.76,4.18v5.49c0,2.84-1.31,4.19-3.76,4.19h-3.54Zm2.38,11.9h.83c1.27,0,1.71-.48,1.71-1.94V135c0-1.45-.44-1.93-1.71-1.93h-.83Z"/><path class="a" d="M143.84,145V131.09h2.38V145Z"/><path class="a" d="M153.19,134.51c-.1-1.2-.73-1.54-1.27-1.54-.77,0-1.19.5-1.19,1.36,0,2.36,4.84,3.5,4.84,7.26,0,2.28-1.54,3.55-3.77,3.55s-3.47-1.77-3.57-3.84l2.27-.33c.09,1.41.65,2.1,1.42,2.1a1.22,1.22,0,0,0,1.38-1.27c0-2.75-4.84-3.47-4.84-7.45,0-2.21,1.35-3.45,3.69-3.45,1.94,0,3.09,1.4,3.3,3.36Z"/><path class="a" d="M158.75,133.16h-2.3v-2.07h7v2.07h-2.31V145h-2.38Z"/><path class="a" d="M165.87,145h-2.3l2.55-13.86h3L171.63,145h-2.3l-.42-3.07H166.3Zm.77-5.15h1.92l-.94-6h0Z"/><path class="a" d="M173,145V131.09h2.21l2.9,7.93h0v-7.93h2.15V145h-2.07l-3-8.66h0V145Z"/><path class="a" d="M187.41,135.71v-1.07c0-1.17-.54-1.67-1.15-1.67-1,0-1.27.5-1.27,1.54v7c0,1,.31,1.54,1.27,1.54s1.15-.5,1.15-1.4V140h2.38v1.59a3.29,3.29,0,0,1-3.53,3.55,3.33,3.33,0,0,1-3.65-3.55v-7.14a3.33,3.33,0,0,1,3.65-3.55c2.38,0,3.53,1.72,3.53,3.8v1Z"/><path class="a" d="M192.21,145V131.09h6.37v2.07h-4v3.57h3.07v2.07h-3.07v4.07h4.26V145Z"/><path class="a" d="M205,145V131.09h6.38v2.07h-4v3.57h3.07v2.07h-3.07v4.07h4.26V145Z"/><path class="a" d="M213.52,131.09h3.53c2.45,0,3.76,1.34,3.76,4.18v5.49c0,2.84-1.31,4.19-3.76,4.19h-3.53ZM215.9,143h.82c1.27,0,1.71-.48,1.71-1.94V135c0-1.45-.44-1.93-1.71-1.93h-.82Z"/><path class="a" d="M223.11,131.09h2.38v10.46c0,1,.41,1.52,1.27,1.52s1.27-.5,1.27-1.52V131.09h2.38v10.36a3.65,3.65,0,1,1-7.3,0Z"/><path class="a" d="M237.51,135.71v-1.07c0-1.17-.54-1.67-1.15-1.67-1,0-1.27.5-1.27,1.54v7c0,1,.31,1.54,1.27,1.54s1.15-.5,1.15-1.4V140h2.38v1.59a3.29,3.29,0,0,1-3.53,3.55,3.33,3.33,0,0,1-3.65-3.55v-7.14a3.33,3.33,0,0,1,3.65-3.55c2.38,0,3.53,1.72,3.53,3.8v1Z"/><path class="a" d="M243.69,145h-2.3l2.55-13.86h3L249.45,145h-2.3l-.43-3.07h-2.61Zm.77-5.15h1.92l-.94-6h0Z"/><path class="a" d="M251.5,133.16h-2.3v-2.07h7v2.07h-2.31V145H251.5Z"/><path class="a" d="M257.91,145V131.09h2.38V145Z"/><path class="a" d="M262.92,134.45a3.65,3.65,0,0,1,7.3,0v7.14a3.65,3.65,0,0,1-7.3,0Zm2.39,7.08c0,1,.3,1.54,1.26,1.54s1.27-.5,1.27-1.54v-7c0-1-.31-1.54-1.27-1.54s-1.26.5-1.26,1.54Z"/><path class="a" d="M272.52,145V131.09h2.21l2.9,7.93h0v-7.93h2.15V145h-2.08l-3-8.66h0V145Z"/><path class="a" d="M287.76,145h-2.3L288,131.09h3L293.52,145h-2.3l-.42-3.07h-2.62Zm.77-5.15h1.92l-.94-6h0Z"/><path class="a" d="M299.7,135.71v-1.07c0-1.17-.54-1.67-1.15-1.67-1,0-1.27.5-1.27,1.54v7c0,1,.31,1.54,1.27,1.54s1.15-.5,1.15-1.4V140h2.38v1.59a3.29,3.29,0,0,1-3.53,3.55,3.33,3.33,0,0,1-3.65-3.55v-7.14a3.33,3.33,0,0,1,3.65-3.55c2.38,0,3.53,1.72,3.53,3.8v1Z"/><path class="a" d="M309.3,135.71v-1.07c0-1.17-.54-1.67-1.15-1.67-1,0-1.27.5-1.27,1.54v7c0,1,.31,1.54,1.27,1.54s1.15-.5,1.15-1.4V140h2.38v1.59a3.29,3.29,0,0,1-3.53,3.55,3.33,3.33,0,0,1-3.65-3.55v-7.14a3.33,3.33,0,0,1,3.65-3.55c2.38,0,3.53,1.72,3.53,3.8v1Z"/><path class="a" d="M316.48,145H314.1V131.09h3.34c2.67,0,4,1.13,4,4.09,0,2.22-.86,3.13-1.67,3.49l2,6.28H319.4l-1.69-5.74a11.12,11.12,0,0,1-1.23.06Zm0-7.64h.84c1.29,0,1.77-.48,1.77-2.13s-.48-2.13-1.77-2.13h-.84Z"/><path class="a" d="M323.7,145V131.09h6.37v2.07h-4v3.57h3.07v2.07h-3.07v4.07h4.26V145Z"/><path class="a" d="M332.22,131.09h3.53c2.46,0,3.76,1.34,3.76,4.18v5.49c0,2.84-1.3,4.19-3.76,4.19h-3.53ZM334.6,143h.82c1.27,0,1.71-.48,1.71-1.94V135c0-1.45-.44-1.93-1.71-1.93h-.82Z"/><path class="a" d="M342.14,145V131.09h2.38V145Z"/><path class="a" d="M348.54,133.16h-2.31v-2.07h7v2.07h-2.3V145h-2.38Z"/><path class="a" d="M355,145V131.09h2.38V145Z"/><path class="a" d="M360,145V131.09h2.2l2.9,7.93h0v-7.93h2.15V145h-2.07l-3-8.66h0V145Z"/><path class="a" d="M372.84,137.92h3.89v7h-1.15l-.44-1a2.76,2.76,0,0,1-2.4,1.23c-1.88,0-3.19-1.34-3.19-3.55v-7.14a3.29,3.29,0,0,1,3.5-3.55c2.38,0,3.57,1.72,3.57,3.8v.88h-2.27c0-2.07-.42-2.61-1.36-2.61-.58,0-1.06.34-1.06,1.52v7.12c0,.88.29,1.46,1.12,1.46s1.3-.54,1.3-1.92V139.8h-1.51Z"/><path class="a" d="M388.21,135.71v-1.07c0-1.17-.54-1.67-1.15-1.67-1,0-1.27.5-1.27,1.54v7c0,1,.31,1.54,1.27,1.54s1.15-.5,1.15-1.4V140h2.38v1.59a3.29,3.29,0,0,1-3.53,3.55,3.33,3.33,0,0,1-3.65-3.55v-7.14a3.33,3.33,0,0,1,3.65-3.55c2.38,0,3.53,1.72,3.53,3.8v1Z"/><path class="a" d="M393,134.45a3.65,3.65,0,0,1,7.3,0v7.14a3.65,3.65,0,0,1-7.3,0Zm2.38,7.08c0,1,.31,1.54,1.27,1.54s1.26-.5,1.26-1.54v-7c0-1-.3-1.54-1.26-1.54s-1.27.5-1.27,1.54Z"/><path class="a" d="M412.15,131.09V145h-2.07V134.12h0L407.89,145h-1.16l-2.14-10.83h0V145h-2.08V131.09h3.13l1.69,8.1h0l1.69-8.1Z"/><path class="a" d="M423.88,131.09V145H421.8V134.12h0L419.62,145h-1.16l-2.15-10.83h0V145H414.2V131.09h3.13l1.69,8.1h0l1.69-8.1Z"/><path class="a" d="M426.39,145V131.09h2.38V145Z"/><path class="a" d="M435.74,134.51c-.1-1.2-.73-1.54-1.27-1.54-.77,0-1.19.5-1.19,1.36,0,2.36,4.84,3.5,4.84,7.26,0,2.28-1.54,3.55-3.76,3.55s-3.48-1.77-3.57-3.84l2.26-.33c.1,1.41.65,2.1,1.42,2.1a1.22,1.22,0,0,0,1.38-1.27c0-2.75-4.83-3.47-4.83-7.45,0-2.21,1.34-3.45,3.68-3.45,1.94,0,3.09,1.4,3.3,3.36Z"/><path class="a" d="M444.26,134.51c-.09-1.2-.73-1.54-1.27-1.54-.76,0-1.18.5-1.18,1.36,0,2.36,4.83,3.5,4.83,7.26,0,2.28-1.53,3.55-3.76,3.55s-3.47-1.77-3.57-3.84l2.26-.33c.1,1.41.66,2.1,1.42,2.1a1.23,1.23,0,0,0,1.39-1.27c0-2.75-4.84-3.47-4.84-7.45,0-2.21,1.34-3.45,3.68-3.45,1.94,0,3.1,1.4,3.31,3.36Z"/><path class="a" d="M448.77,145V131.09h2.38V145Z"/><path class="a" d="M453.78,134.45a3.65,3.65,0,0,1,7.3,0v7.14a3.65,3.65,0,0,1-7.3,0Zm2.38,7.08c0,1,.31,1.54,1.27,1.54s1.27-.5,1.27-1.54v-7c0-1-.31-1.54-1.27-1.54s-1.27.5-1.27,1.54Z"/><path class="a" d="M463.38,145V131.09h2.21l2.9,7.93h0v-7.93h2.15V145H468.6l-3-8.66h0V145Z"/></svg>